HIERARCHY
ROOT Hips
{
	OFFSET 0.000000 0.000000 0.000000
	CHANNELS 6 Xposition Yposition Zposition Zrotation Yrotation Xrotation 
	JOINT LHipJoint
	{
		OFFSET 0.000000 0.000000 0.000000
		CHANNELS 3 Zrotation Yrotation Xrotation
		JOINT LeftUpLeg
		{
			OFFSET 1.363060 -1.794630 0.839290
			CHANNELS 3 Zrotation Yrotation Xrotation
			JOINT LeftLeg
			{
				OFFSET 2.448110 -6.726130 0.000000
				CHANNELS 3 Zrotation Yrotation Xrotation
				JOINT LeftFoot
				{
					OFFSET 2.562200 -7.039590 0.000000
					CHANNELS 3 Zrotation Yrotation Xrotation
					JOINT LeftToeBase
					{
						OFFSET 0.157640 -0.433110 2.322550
						CHANNELS 3 Zrotation Yrotation Xrotation
						End Site
						{
							OFFSET 0.000000 0.000000 0.000000
						}
					}
				}
			}
		}
	}
	JOINT RHipJoint
	{
		OFFSET 0.000000 0.000000 0.000000
		CHANNELS 3 Zrotation Yrotation Xrotation
		JOINT RightUpLeg
		{
			OFFSET -1.305520 -1.794630 0.839290
			CHANNELS 3 Zrotation Yrotation Xrotation
			JOINT RightLeg
			{
				OFFSET -2.542530 -6.985550 0.000000
				CHANNELS 3 Zrotation Yrotation Xrotation
				JOINT RightFoot
				{
					OFFSET -2.568260 -7.056230 0.000000
					CHANNELS 3 Zrotation Yrotation Xrotation
					JOINT RightToeBase
					{
						OFFSET -0.164730 -0.452590 2.363150
						CHANNELS 3 Zrotation Yrotation Xrotation
						End Site
						{
							OFFSET 0.000000 0.000000 0.000000
						}
					}
				}
			}
		}
	}
	JOINT LowerBack
	{
		OFFSET 0.000000 0.000000 0.000000
		CHANNELS 3 Zrotation Yrotation Xrotation
		JOINT Spine
		{
			OFFSET 0.028270 2.035590 -0.193380
			CHANNELS 3 Zrotation Yrotation Xrotation
			JOINT Spine1
			{
				OFFSET 0.056720 2.048850 -0.042750
				CHANNELS 3 Zrotation Yrotation Xrotation
				JOINT Neck
				{
					OFFSET 0.000000 0.000000 0.000000
					CHANNELS 3 Zrotation Yrotation Xrotation
					JOINT Neck1
					{
						OFFSET -0.054170 1.746240 0.172020
						CHANNELS 3 Zrotation Yrotation Xrotation
						JOINT Head
						{
							OFFSET 0.104070 1.761360 -0.123970
							CHANNELS 3 Zrotation Yrotation Xrotation
							End Site
							{
								OFFSET 0.000000 0.000000 0.000000
							}
						}
					}
				}
				JOINT LeftShoulder
				{
					OFFSET 0.000000 0.000000 0.000000
					CHANNELS 3 Zrotation Yrotation Xrotation
					JOINT LeftArm
					{
						OFFSET 3.362410 1.200890 -0.311210
						CHANNELS 3 Zrotation Yrotation Xrotation
						JOINT LeftForeArm
						{
							OFFSET 4.983000 -0.000000 -0.000000
							CHANNELS 3 Zrotation Yrotation Xrotation
							JOINT LeftHand
							{
								OFFSET 3.483560 -0.000000 -0.000000
								CHANNELS 3 Zrotation Yrotation Xrotation
								JOINT LeftFingerBase
								{
									OFFSET 0.000000 0.000000 0.000000
									CHANNELS 3 Zrotation Yrotation Xrotation
									JOINT LeftHandIndex1
									{
										OFFSET 0.715260 -0.000000 -0.000000
										CHANNELS 3 Zrotation Yrotation Xrotation
										End Site
										{
											OFFSET 0.000000 0.000000 0.000000
										}
									}
								}
								JOINT LThumb
								{
									OFFSET 0.000000 0.000000 0.000000
									CHANNELS 3 Zrotation Yrotation Xrotation
									End Site
									{
										OFFSET 0.000000 0.000000 0.000000
									}
								}
							}
						}
					}
				}
				JOINT RightShoulder
				{
					OFFSET 0.000000 0.000000 0.000000
					CHANNELS 3 Zrotation Yrotation Xrotation
					JOINT RightArm
					{
						OFFSET -3.136600 1.374050 -0.404650
						CHANNELS 3 Zrotation Yrotation Xrotation
						JOINT RightForeArm
						{
							OFFSET -5.241900 -0.000000 -0.000000
							CHANNELS 3 Zrotation Yrotation Xrotation
							JOINT RightHand
							{
								OFFSET -3.444170 -0.000000 -0.000000
								CHANNELS 3 Zrotation Yrotation Xrotation
								JOINT RightFingerBase
								{
									OFFSET 0.000000 0.000000 0.000000
									CHANNELS 3 Zrotation Yrotation Xrotation
									JOINT RightHandIndex1
									{
										OFFSET -0.622530 -0.000000 -0.000000
										CHANNELS 3 Zrotation Yrotation Xrotation
										End Site
										{
											OFFSET 0.000000 0.000000 0.000000
										}
									}
								}
								JOINT RThumb
								{
									OFFSET 0.000000 0.000000 0.000000
									CHANNELS 3 Zrotation Yrotation Xrotation
									End Site
									{
										OFFSET 0.000000 0.000000 0.000000
									}
								}
							}
						}
					}
				}
			}
		}
	}
}
MOTION
Frames: 9
Frame Time: 0.008333
3.648112 17.245079 1.027663 -172.055594 -82.090518 -176.535325 -11.478322 1.812438 0.318195 -4.298462 20.249129 -16.174416 -2.699784 -1.078548 -1.924046 0.495330 4.077106 2.749074 0.866000 0.000000 -35.679100 9.392809 -1.583000 2.941335 3.484336 -1.632917 -10.997439 2.638311 1.866760 -5.208800 -0.195592 -2.957346 3.725916 -1.300200 0.000000 -42.836500 2.288441 -1.576598 -4.402095 -0.211060 -1.872151 -3.485140 -7.330944 -1.563487 -0.300263 7.638755 -7.723010 -1.392168 -4.273549 -0.380566 1.687650 0.000000 0.000000 0.000000 11.742950 6.784017 -1.814684 -82.063029 -22.075714 27.142744 -176.548107 -52.144434 -179.959671 -2.071390 -8.932673 0.201209 0.109251 1.331623 -0.000000 0.000000 0.000000 0.000000 0.000000 0.000000 0.000000 1.674451 -5.542477 -2.935844 87.710057 21.938808 37.186756 -179.433693 55.351190 179.870924 -9.439780 12.652259 -1.168102 0.210923 -1.144497 -0.000000 0.000000 0.000000 0.000000 0.000000 0.000000 0.000000 
3.650581 17.246165 1.022483 -170.454653 -83.475261 -177.962507 -11.396687 1.822043 0.536253 -4.380050 19.455023 -16.658047 -2.715799 -1.088251 -1.882404 0.419970 3.463604 2.961625 0.786400 0.000000 -35.905500 9.448266 -1.590008 2.898109 3.587783 -2.084387 -11.111328 2.584675 1.881767 -5.039792 -0.321706 -3.858235 3.388691 -1.509600 0.000001 -42.498200 2.255700 -1.615723 -4.595122 -0.221156 -1.912860 -3.506248 -7.382635 -1.599109 -0.272720 7.689874 -7.705328 -1.226921 -4.221089 -0.378467 1.734555 0.000000 0.000000 0.000000 11.482413 6.736665 -1.821604 -81.925751 -23.587954 28.000699 -176.380529 -52.458556 -179.957297 -2.059452 -9.008010 0.200659 0.095055 1.345136 -0.000000 0.000000 0.000000 0.000000 0.000000 0.000000 0.000000 1.551434 -5.658206 -2.993890 87.386556 22.560133 36.499889 -179.361468 55.234822 179.866240 -9.829555 12.297538 -1.183981 0.221287 -1.130793 -0.000000 0.000000 0.000000 0.000000 0.000000 0.000000 0.000000 
3.652864 17.247515 1.017242 -167.859541 -84.874071 179.633366 -11.290278 1.833405 0.763940 -4.475946 18.622797 -17.151048 -2.732909 -1.105414 -1.861315 0.347411 2.891523 3.197316 0.713301 0.000000 -36.119200 9.527310 -1.601103 2.868192 3.683650 -2.525364 -11.283931 2.524707 1.889208 -4.817782 -0.440539 -4.768579 3.026087 -1.727000 0.000000 -42.147600 2.190375 -1.649987 -4.815774 -0.231813 -1.946494 -3.535267 -7.407311 -1.630828 -0.256745 7.778982 -7.651981 -1.023620 -4.155266 -0.375884 1.792310 0.000000 0.000000 0.000000 11.239104 6.678867 -1.833366 -81.979143 -25.075657 28.980677 -176.252340 -52.862462 -179.955911 -2.000662 -9.063430 0.195324 0.080206 1.355957 -0.000000 0.000000 0.000000 0.000000 0.000000 0.000000 0.000000 1.426668 -5.731820 -3.057905 86.898513 23.367640 35.729583 -179.303166 55.066141 179.861700 -10.215550 11.920271 -1.194884 0.232602 -1.117240 -0.000000 0.000000 0.000000 0.000000 0.000000 0.000000 0.000000 
3.655181 17.249169 1.012430 -162.221387 -86.295662 174.195083 -11.122835 1.839059 0.996292 -4.564876 17.763115 -17.653204 -2.753818 -1.135715 -1.838869 0.272934 2.340962 3.449281 0.643500 -0.000000 -36.314500 9.665484 -1.626208 2.857328 3.795456 -2.968817 -11.513973 2.456751 1.882098 -4.547859 -0.551435 -5.686799 2.641034 -1.952801 -0.000000 -41.786800 2.136748 -1.688608 -5.063512 -0.230560 -1.986384 -3.576669 -7.384654 -1.673761 -0.272219 7.886256 -7.528397 -0.751129 -4.077133 -0.373198 1.869616 0.000000 0.000000 0.000000 10.999707 6.555436 -1.840326 -82.222107 -26.469722 30.046561 -176.170915 -53.347915 -179.955535 -1.901206 -9.090277 0.185615 0.065630 1.363551 -0.000000 0.000000 0.000000 0.000000 0.000000 0.000000 0.000000 1.299094 -5.731953 -3.126166 86.183420 24.435489 34.873390 -179.268818 54.889692 179.857870 -10.550636 11.497551 -1.192936 0.243196 -1.102568 -0.000000 0.000000 0.000000 0.000000 0.000000 0.000000 0.000000 
3.658295 17.251139 1.008410 -139.408128 -87.963639 151.567961 -10.806309 1.718918 1.187166 -4.586006 16.797527 -18.090727 -2.777173 -1.239983 -1.790260 0.169745 1.777797 3.754292 0.584400 0.000000 -36.488000 9.956395 -1.790321 2.905329 3.975326 -3.495986 -11.801334 2.362985 1.799431 -4.287680 -0.685387 -6.658500 2.212860 -2.181300 -0.000000 -41.425100 2.185267 -1.841492 -5.326952 -0.167972 -2.151449 -3.630190 -7.287567 -1.849568 -0.345043 7.987075 -7.290226 -0.364718 -3.984688 -0.370819 1.978449 0.000000 0.000000 0.000000 10.733044 6.240743 -1.820276 -82.641227 -27.729460 31.165823 -176.129948 -53.909878 -179.955839 -1.774608 -9.088330 0.172868 0.051665 1.368443 -0.000000 0.000000 0.000000 0.000000 0.000000 0.000000 0.000000 1.150511 -5.673752 -3.199858 85.176403 25.799640 33.877398 -179.245922 54.775512 179.855132 -10.780905 10.993152 -1.168294 0.248870 -1.083962 -0.000000 0.000000 0.000000 0.000000 0.000000 0.000000 0.000000 
3.662804 17.253436 1.005635 -30.778015 -89.920706 43.088493 -11.642951 1.593495 1.431559 -5.080158 15.838300 -18.505523 -2.745524 -1.259542 -1.880504 0.118472 1.405061 4.076892 0.535100 -0.000000 -36.638800 9.144876 -1.971290 2.864894 3.611944 -4.014492 -12.017895 2.343930 1.808279 -3.909504 -0.746950 -7.458744 1.781738 -2.408600 -0.000000 -41.062900 0.825513 -2.076472 -5.593057 -0.294506 -2.246659 -3.703809 -7.053137 -1.994106 -0.476766 8.020826 -6.909892 0.128223 -3.878680 -0.369571 2.117064 0.000000 0.000000 0.000000 10.446219 5.796149 -1.807758 -83.141685 -28.770171 32.267227 -176.191590 -54.490040 -179.958261 -1.631652 -9.063578 0.158653 0.044373 1.368061 -0.000000 0.000000 0.000000 0.000000 0.000000 0.000000 0.000000 1.005012 -5.422247 -3.258025 83.894913 27.572169 32.700034 -179.273984 54.859775 179.854775 -10.860729 10.356485 -1.112174 0.250357 -1.060488 -0.000000 0.000000 0.000000 0.000000 0.000000 0.000000 0.000000 
3.668787 17.255604 1.008341 -8.255755 -88.428855 20.744900 -11.461262 1.862404 1.991966 -4.907796 14.007243 -19.125499 -2.679351 -1.180570 -1.785828 0.134615 1.296910 4.175858 0.514700 0.000000 -36.712900 9.273625 -1.741062 2.541597 4.014186 -5.506635 -12.307079 2.384219 1.889969 -3.320052 -0.674794 -7.893039 1.422008 -2.586200 0.000000 -40.675300 0.864052 -2.100225 -5.873087 -0.265714 -2.262883 -3.816568 -6.733243 -2.037338 -0.706232 7.902950 -6.368575 0.722558 -3.758561 -0.367734 2.288668 0.000000 0.000000 0.000000 10.015408 5.260029 -1.755189 -83.865229 -29.589368 33.343124 -176.269323 -55.107652 -179.960208 -1.495710 -9.016944 0.145222 0.038711 1.367470 -0.000000 0.000000 0.000000 0.000000 0.000000 0.000000 0.000000 0.756731 -4.924455 -3.343043 82.156382 29.761076 31.223332 -179.301866 55.254123 179.856330 -10.784003 9.547802 -1.021594 0.241526 -1.025377 -0.000000 0.000000 0.000000 0.000000 0.000000 0.000000 0.000000 
3.678393 17.258569 1.008706 -4.096782 -87.271012 16.663654 -11.320914 1.927723 2.223617 -5.001586 13.130003 -19.367274 -2.685280 -1.199833 -1.913204 0.099004 1.074421 4.470265 0.491100 0.000000 -36.812801 9.402632 -1.724536 2.486479 4.018060 -6.008734 -12.509075 2.325102 1.872636 -2.925741 -0.685068 -8.519729 1.102880 -2.784100 0.000000 -40.328500 0.648526 -2.064249 -6.074518 -0.243953 -2.195803 -3.936409 -6.307712 -2.005349 -1.049047 7.651493 -5.655871 1.441546 -3.629016 -0.367198 2.491320 0.000000 0.000000 0.000000 9.498827 4.529023 -1.698900 -84.557485 -30.167034 34.297004 -176.439985 -55.671620 -179.963614 -1.377199 -8.965156 0.133853 0.041252 1.362055 -0.000000 0.000000 0.000000 0.000000 0.000000 0.000000 0.000000 0.528296 -4.166044 -3.387278 80.009757 32.390173 29.357966 -179.316889 56.182653 179.859511 -10.583913 8.552038 -0.902207 0.222438 -0.980894 -0.000000 0.000000 0.000000 0.000000 0.000000 0.000000 0.000000 
3.691600 17.262037 1.010557 -1.773625 -86.183639 14.364478 -11.213983 1.967673 2.413152 -5.097789 12.318360 -19.496018 -2.686764 -1.223348 -2.056986 0.068616 0.923277 4.763767 0.479800 0.000001 -36.886300 9.507388 -1.725302 2.418088 3.981721 -6.517812 -12.654660 2.270332 1.841946 -2.568048 -0.682897 -9.033076 0.843383 -2.954900 -0.000000 -39.994700 0.427677 -2.004409 -6.214482 -0.203899 -2.097389 -4.067515 -5.764089 -1.945354 -1.476490 7.202990 -4.805810 2.214605 -3.486866 -0.367043 2.709070 0.000000 0.000000 0.000000 8.820831 3.619063 -1.641080 -85.252789 -30.554177 35.134396 -176.659527 -56.166029 -179.967483 -1.289973 -8.915356 0.125882 0.049944 1.353966 -0.000000 0.000000 0.000000 0.000000 0.000000 0.000000 0.000000 0.266065 -3.213556 -3.393580 77.350848 35.434900 27.001163 -179.279806 57.826697 179.863385 -10.356262 7.388070 -0.767730 0.193728 -0.926814 -0.000000 0.000000 0.000000 0.000000 0.000000 0.000000 0.000000 
